<?xml version="1.0" encoding="UTF-8" standalone="no"?>
<!-- Created with Inkscape (http://www.inkscape.org/) -->

<svg
   width="56mm"
   height="56mm"
   viewBox="0 0 56 56"
   version="1.1"
   id="svg888"
   inkscape:version="1.1.1 (3bf5ae0d25, 2021-09-20, custom)"
   sodipodi:docname="council.svg"
   xmlns:inkscape="http://www.inkscape.org/namespaces/inkscape"
   xmlns:sodipodi="http://sodipodi.sourceforge.net/DTD/sodipodi-0.dtd"
   xmlns="http://www.w3.org/2000/svg"
   xmlns:svg="http://www.w3.org/2000/svg">
  <sodipodi:namedview
     id="namedview890"
     pagecolor="#ffffff"
     bordercolor="#666666"
     borderopacity="1.0"
     inkscape:pageshadow="2"
     inkscape:pageopacity="0.0"
     inkscape:pagecheckerboard="0"
     inkscape:document-units="mm"
     showgrid="false"
     inkscape:zoom="0.77771465"
     inkscape:cx="116.36659"
     inkscape:cy="560.61693"
     inkscape:window-width="2560"
     inkscape:window-height="1411"
     inkscape:window-x="0"
     inkscape:window-y="0"
     inkscape:window-maximized="1"
     inkscape:current-layer="layer1"
     width="56mm" />
  <defs
     id="defs885" />
  <g
     inkscape:label="图层 1"
     inkscape:groupmode="layer"
     id="layer1">
    <g
       id="g240"
       transform="matrix(0.77173659,0,0,-0.80924928,33.271914,46.123418)">
      <path
         d="m 0,0 c -0.724,1.367 -1.91,2.453 -3.335,3.084 0.484,0.638 0.772,1.433 0.772,2.294 0,2.098 -1.708,3.807 -3.807,3.807 -2.099,0 -3.807,-1.708 -3.807,-3.807 0,-0.917 0.326,-1.758 0.867,-2.416 -1.308,-0.644 -2.394,-1.68 -3.074,-2.962 -1.254,1.441 -2.015,3.322 -2.015,5.378 0,4.525 3.682,8.207 8.207,8.207 4.526,0 8.207,-3.682 8.207,-8.207 C 2.015,3.322 1.254,1.442 0,0 m -8.058,5.378 c 0,0.93 0.757,1.688 1.688,1.688 0.931,0 1.688,-0.758 1.688,-1.688 0,-0.931 -0.757,-1.688 -1.688,-1.688 -0.931,0 -1.688,0.757 -1.688,1.688 m 1.866,-8.208 c -1.675,0 -3.233,0.506 -4.533,1.371 0.697,1.789 2.504,3.03 4.533,3.03 2.03,0 3.837,-1.241 4.533,-3.03 -1.299,-0.865 -2.858,-1.371 -4.533,-1.371 m 0,18.534 c -5.693,0 -10.326,-4.632 -10.326,-10.326 0,-3.235 1.496,-6.126 3.831,-8.021 0.044,-0.042 0.092,-0.081 0.144,-0.115 1.753,-1.372 3.958,-2.19 6.351,-2.19 2.393,0 4.599,0.818 6.352,2.19 0.051,0.034 0.099,0.073 0.144,0.115 2.335,1.895 3.83,4.786 3.83,8.021 0,5.694 -4.632,10.326 -10.326,10.326"
         style="fill:#171940;fill-opacity:1;fill-rule:nonzero;stroke:none"
         id="path242" />
    </g>
    <g
       id="g244"
       transform="matrix(0.77173659,0,0,-0.80924928,20.310521,21.315084)">
      <path
         d="m 0,0 c -0.724,1.367 -1.91,2.453 -3.334,3.084 0.483,0.638 0.77,1.433 0.77,2.294 0,2.099 -1.707,3.807 -3.806,3.807 -2.1,0 -3.807,-1.708 -3.807,-3.807 0,-0.916 0.326,-1.758 0.867,-2.416 -1.308,-0.644 -2.394,-1.68 -3.073,-2.962 -1.254,1.442 -2.016,3.322 -2.016,5.378 0,4.526 3.682,8.207 8.207,8.207 4.526,0 8.207,-3.681 8.207,-8.207 C 2.015,3.322 1.254,1.442 0,0 m -8.058,5.378 c 0,0.93 0.757,1.688 1.688,1.688 0.931,0 1.688,-0.757 1.688,-1.688 0,-0.931 -0.757,-1.688 -1.688,-1.688 -0.931,0 -1.688,0.757 -1.688,1.688 m 1.866,-8.207 c -1.674,0 -3.233,0.505 -4.533,1.37 0.697,1.79 2.504,3.03 4.533,3.03 2.03,0 3.837,-1.24 4.534,-3.03 -1.3,-0.865 -2.859,-1.37 -4.534,-1.37 m 0,18.533 c -5.693,0 -10.326,-4.632 -10.326,-10.326 0,-3.235 1.496,-6.126 3.831,-8.021 0.044,-0.042 0.092,-0.081 0.143,-0.115 1.753,-1.372 3.959,-2.19 6.352,-2.19 2.394,0 4.599,0.819 6.352,2.19 0.052,0.034 0.099,0.073 0.143,0.115 2.336,1.895 3.831,4.786 3.831,8.021 0,5.694 -4.632,10.326 -10.326,10.326"
         style="fill:#171940;fill-opacity:1;fill-rule:nonzero;stroke:none"
         id="path246" />
    </g>
    <g
       id="g248"
       transform="matrix(0.77173659,0,0,-0.80924928,46.233693,21.315084)">
      <path
         d="m 0,0 c -0.724,1.367 -1.911,2.453 -3.335,3.084 0.484,0.638 0.771,1.433 0.771,2.294 0,2.099 -1.707,3.807 -3.807,3.807 -2.098,0 -3.806,-1.708 -3.806,-3.807 0,-0.916 0.326,-1.758 0.867,-2.415 -1.308,-0.644 -2.394,-1.681 -3.074,-2.963 -1.254,1.442 -2.015,3.322 -2.015,5.378 0,4.526 3.682,8.207 8.207,8.207 4.525,0 8.207,-3.681 8.207,-8.207 C 2.015,3.322 1.253,1.442 0,0 m -8.058,5.378 c 0,0.93 0.757,1.688 1.687,1.688 0.932,0 1.688,-0.757 1.688,-1.688 0,-0.931 -0.757,-1.688 -1.688,-1.688 -0.93,0 -1.687,0.757 -1.687,1.688 m 1.866,-8.207 c -1.675,0 -3.234,0.505 -4.533,1.37 0.696,1.79 2.503,3.03 4.533,3.03 2.03,0 3.837,-1.24 4.533,-3.03 -1.299,-0.865 -2.858,-1.37 -4.533,-1.37 m 0,18.533 c -5.694,0 -10.326,-4.632 -10.326,-10.326 0,-3.235 1.496,-6.127 3.831,-8.021 0.044,-0.042 0.092,-0.081 0.143,-0.115 1.753,-1.371 3.958,-2.19 6.352,-2.19 2.393,0 4.599,0.818 6.352,2.19 0.051,0.034 0.099,0.073 0.143,0.115 2.336,1.894 3.831,4.786 3.831,8.021 0,5.694 -4.632,10.326 -10.326,10.326"
         style="fill:#171940;fill-opacity:1;fill-rule:nonzero;stroke:none"
         id="path250" />
    </g>
    <g
       id="g252"
       transform="matrix(0.77173659,0,0,-0.80924928,19.089324,37.892136)">
      <path
         d="m 0,0 c -0.004,0.004 -0.009,0.008 -0.013,0.011 -0.446,0.378 -1.115,0.322 -1.493,-0.124 -0.375,-0.444 -0.323,-1.107 0.116,-1.486 0.004,-0.004 0.009,-0.008 0.012,-0.011 0.2,-0.168 0.443,-0.251 0.684,-0.251 0.301,0 0.6,0.128 0.81,0.375 C 0.491,-1.042 0.439,-0.379 0,0"
         style="fill:#171940;fill-opacity:1;fill-rule:nonzero;stroke:none"
         id="path254" />
    </g>
    <g
       id="g256"
       transform="matrix(0.77173659,0,0,-0.80924928,17.494067,36.172901)">
      <path
         d="m 0,0 c -0.002,0.003 -0.011,0.014 -0.013,0.016 -0.376,0.447 -1.041,0.502 -1.488,0.127 -0.448,-0.374 -0.507,-1.042 -0.134,-1.491 l 0.002,-0.002 c 0.21,-0.254 0.512,-0.384 0.817,-0.384 0.238,0 0.477,0.079 0.675,0.243 C 0.31,-1.118 0.373,-0.451 0,0"
         style="fill:#171940;fill-opacity:1;fill-rule:nonzero;stroke:none"
         id="path258" />
    </g>
    <g
       id="g260"
       transform="matrix(0.77173659,0,0,-0.80924928,16.168688,34.206586)">
      <path
         d="M 0,0 C -0.002,0.004 -0.01,0.017 -0.012,0.02 -0.315,0.522 -0.967,0.685 -1.468,0.382 -1.969,0.08 -2.131,-0.569 -1.829,-1.07 l 10e-4,-0.002 c 0.197,-0.336 0.551,-0.523 0.915,-0.523 0.182,0 0.366,0.047 0.535,0.145 C 0.127,-1.154 0.296,-0.505 0,0"
         style="fill:#171940;fill-opacity:1;fill-rule:nonzero;stroke:none"
         id="path262" />
    </g>
    <g
       id="g264"
       transform="matrix(0.77173659,0,0,-0.80924928,14.472797,29.736119)">
      <path
         d="M 0,0 C -0.123,0.572 -0.686,0.936 -1.259,0.813 -1.83,0.689 -2.194,0.126 -2.071,-0.446 c 0.001,-0.004 0.004,-0.018 0.005,-0.022 0.112,-0.492 0.549,-0.826 1.033,-0.826 0.077,0 0.156,0.009 0.235,0.027 C -0.228,-1.138 0.13,-0.571 0,0"
         style="fill:#171940;fill-opacity:1;fill-rule:nonzero;stroke:none"
         id="path266" />
    </g>
    <g
       id="g268"
       transform="matrix(0.77173659,0,0,-0.80924928,15.150612,32.040629)">
      <path
         d="M 0,0 C -0.001,0.002 -0.005,0.014 -0.006,0.015 -0.224,0.558 -0.841,0.819 -1.384,0.601 -1.926,0.383 -2.189,-0.234 -1.971,-0.777 l 0.002,-0.005 c 0.165,-0.415 0.564,-0.668 0.985,-0.668 0.13,0 0.262,0.024 0.39,0.074 C -0.05,-1.16 0.216,-0.544 0,0"
         style="fill:#171940;fill-opacity:1;fill-rule:nonzero;stroke:none"
         id="path270" />
    </g>
    <g
       id="g272"
       transform="matrix(0.77173659,0,0,-0.80924928,39.060094,37.984238)">
      <path
         d="M 0,0 C -0.378,0.447 -1.046,0.503 -1.493,0.125 -1.497,0.122 -1.502,0.117 -1.506,0.114 c -0.438,-0.379 -0.491,-1.042 -0.116,-1.486 0.21,-0.248 0.509,-0.375 0.81,-0.375 0.241,0 0.485,0.082 0.684,0.251 0.003,0.003 0.008,0.007 0.012,0.011 C 0.323,-1.106 0.376,-0.443 0,0"
         style="fill:#171940;fill-opacity:1;fill-rule:nonzero;stroke:none"
         id="path274" />
    </g>
    <g
       id="g276"
       transform="matrix(0.77173659,0,0,-0.80924928,42.904963,31.553787)">
      <path
         d="m 0,0 c -0.543,0.219 -1.16,-0.044 -1.379,-0.587 0,-0.001 -0.005,-0.013 -0.006,-0.015 -0.215,-0.543 0.051,-1.152 0.594,-1.369 0.127,-0.052 0.26,-0.075 0.39,-0.075 0.421,0 0.821,0.253 0.988,0.667 C 0.806,-0.836 0.543,-0.219 0,0"
         style="fill:#171940;fill-opacity:1;fill-rule:nonzero;stroke:none"
         id="path278" />
    </g>
    <g
       id="g280"
       transform="matrix(0.77173659,0,0,-0.80924928,40.655427,36.057241)">
      <path
         d="m 0,0 c -0.447,0.377 -1.116,0.32 -1.493,-0.127 -0.003,-0.002 -0.011,-0.013 -0.013,-0.016 -0.372,-0.449 -0.307,-1.11 0.14,-1.484 0.197,-0.164 0.437,-0.245 0.676,-0.245 0.304,0 0.606,0.13 0.817,0.379 C 0.504,-1.046 0.447,-0.377 0,0"
         style="fill:#171940;fill-opacity:1;fill-rule:nonzero;stroke:none"
         id="path282" />
    </g>
    <g
       id="g284"
       transform="matrix(0.77173659,0,0,-0.80924928,43.489012,29.081843)">
      <path
         d="m 0,0 c -0.569,0.126 -1.134,-0.236 -1.262,-0.805 l -10e-4,-0.002 c -0.129,-0.571 0.228,-1.138 0.799,-1.268 0.079,-0.018 0.157,-0.026 0.235,-0.026 0.484,0 0.921,0.333 1.032,0.824 0.001,0.005 0.005,0.019 0.005,0.023 C 0.931,-0.684 0.57,-0.125 0,0"
         style="fill:#171940;fill-opacity:1;fill-rule:nonzero;stroke:none"
         id="path286" />
    </g>
    <g
       id="g288"
       transform="matrix(0.77173659,0,0,-0.80924928,41.950477,33.8989)">
      <path
         d="m 0,0 c -0.501,0.302 -1.152,0.141 -1.455,-0.36 -0.002,-0.004 -0.01,-0.017 -0.012,-0.02 -0.295,-0.505 -0.127,-1.155 0.378,-1.451 0.169,-0.1 0.353,-0.146 0.535,-0.146 0.364,0 0.717,0.187 0.914,0.522 C 0.662,-0.953 0.501,-0.303 0,0"
         style="fill:#171940;fill-opacity:1;fill-rule:nonzero;stroke:none"
         id="path290" />
    </g>
    <g
       id="g292"
       transform="matrix(0.77173659,0,0,-0.80924928,43.698614,26.543306)">
      <path
         d="m 0,0 c -0.585,0.034 -1.084,-0.415 -1.117,-0.999 v -0.004 c -0.032,-0.585 0.415,-1.082 0.999,-1.114 0.02,-10e-4 0.04,-0.002 0.06,-0.002 0.558,0 1.025,0.439 1.057,1.004 C 1.031,-0.531 0.584,-0.033 0,0"
         style="fill:#171940;fill-opacity:1;fill-rule:nonzero;stroke:none"
         id="path294" />
    </g>
    <g
       id="g296"
       transform="matrix(0.77173659,0,0,-0.80924928,33.580918,10.155939)">
      <path
         d="m 0,0 -0.01,0.003 c -0.557,0.18 -1.154,-0.126 -1.334,-0.682 -0.18,-0.557 0.126,-1.154 0.682,-1.334 l 0.011,-0.003 c 0.108,-0.035 0.218,-0.052 0.326,-0.052 0.447,0 0.863,0.285 1.007,0.734 C 0.862,-0.777 0.557,-0.18 0,0"
         style="fill:#171940;fill-opacity:1;fill-rule:nonzero;stroke:none"
         id="path298" />
    </g>
    <g
       id="g300"
       transform="matrix(0.77173659,0,0,-0.80924928,31.06822,9.5372653)">
      <path
         d="m 0,0 -0.028,0.004 c -0.579,0.086 -1.12,-0.314 -1.206,-0.893 -0.085,-0.579 0.312,-1.116 0.891,-1.202 0.058,-0.009 0.116,-0.014 0.173,-0.014 0.509,0 0.959,0.368 1.044,0.888 C 0.969,-0.64 0.578,-0.095 0,0"
         style="fill:#171940;fill-opacity:1;fill-rule:nonzero;stroke:none"
         id="path302" />
    </g>
    <g
       id="g304"
       transform="matrix(0.77173659,0,0,-0.80924928,28.483674,9.343359)">
      <path
         d="m 0,0 -0.026,-0.001 c -0.585,-0.008 -1.055,-0.489 -1.046,-1.074 0.008,-0.58 0.479,-1.044 1.057,-1.044 H 0 c 0.585,0 1.059,0.474 1.059,1.06 C 1.059,-0.474 0.585,0 0,0"
         style="fill:#171940;fill-opacity:1;fill-rule:nonzero;stroke:none"
         id="path306" />
    </g>
    <g
       id="g308"
       transform="matrix(0.77173659,0,0,-0.80924928,24.413303,10.731946)">
      <path
         d="M 0,0 C -0.17,0.56 -0.761,0.876 -1.321,0.707 L -1.336,0.702 c -0.559,-0.172 -0.87,-0.764 -0.697,-1.323 0.139,-0.455 0.56,-0.747 1.014,-0.747 0.103,0 0.208,0.015 0.312,0.047 C -0.146,-1.151 0.17,-0.56 0,0"
         style="fill:#171940;fill-opacity:1;fill-rule:nonzero;stroke:none"
         id="path310" />
    </g>
    <g
       id="g312"
       transform="matrix(0.77173659,0,0,-0.80924928,26.842191,10.289056)">
      <path
         d="m 0,0 c -0.094,0.577 -0.635,0.97 -1.213,0.877 l 0.155,-1.048 -0.157,1.047 C -1.793,0.79 -2.192,0.251 -2.107,-0.328 c 0.079,-0.526 0.531,-0.903 1.047,-0.903 0.052,0 0.105,0.004 0.158,0.012 0.004,0 0.019,0.003 0.023,0.003 C -0.301,-1.122 0.094,-0.578 0,0"
         style="fill:#171940;fill-opacity:1;fill-rule:nonzero;stroke:none"
         id="path314" />
    </g>
    <g
       id="g316"
       transform="matrix(0.77173659,0,0,-0.80924928,14.133078,27.165788)">
      <path
         d="M 0,0 C -0.123,0.572 -0.686,0.936 -1.259,0.813 -1.831,0.69 -2.194,0.126 -2.071,-0.446 c 0.001,-0.004 0.004,-0.018 0.004,-0.022 0.113,-0.492 0.549,-0.825 1.033,-0.825 0.077,0 0.157,0.008 0.236,0.026 C -0.228,-1.137 0.13,-0.57 0,0"
         style="fill:#171940;fill-opacity:1;fill-rule:nonzero;stroke:none"
         id="path318" />
    </g>
  </g>
</svg>
