<?xml version="1.0" encoding="UTF-8" standalone="no"?>
<!-- Created with Inkscape (http://www.inkscape.org/) -->

<svg
   width="56mm"
   height="56mm"
   viewBox="0 0 56 56"
   version="1.1"
   id="svg1256"
   inkscape:version="1.1.1 (3bf5ae0d25, 2021-09-20, custom)"
   sodipodi:docname="proposal.svg"
   xmlns:inkscape="http://www.inkscape.org/namespaces/inkscape"
   xmlns:sodipodi="http://sodipodi.sourceforge.net/DTD/sodipodi-0.dtd"
   xmlns="http://www.w3.org/2000/svg"
   xmlns:svg="http://www.w3.org/2000/svg">
  <sodipodi:namedview
     id="namedview1258"
     pagecolor="#ffffff"
     bordercolor="#666666"
     borderopacity="1.0"
     inkscape:pageshadow="2"
     inkscape:pageopacity="0.0"
     inkscape:pagecheckerboard="0"
     inkscape:document-units="mm"
     showgrid="false"
     inkscape:zoom="0.77771465"
     inkscape:cx="396.67505"
     inkscape:cy="560.61693"
     inkscape:window-width="2560"
     inkscape:window-height="1411"
     inkscape:window-x="0"
     inkscape:window-y="0"
     inkscape:window-maximized="1"
     inkscape:current-layer="layer1" />
  <defs
     id="defs1253" />
  <g
     inkscape:label="图层 1"
     inkscape:groupmode="layer"
     id="layer1">
    <g
       id="g404"
       transform="matrix(0.80583607,0,0,-0.77826549,46.262621,23.750164)">
      <path
         d="m 0,0 c 0,-0.585 -0.474,-1.059 -1.059,-1.059 -0.585,0 -1.06,0.474 -1.06,1.059 0,0.585 0.475,1.059 1.06,1.059 C -0.474,1.059 0,0.585 0,0"
         style="fill:#171940;fill-opacity:1;fill-rule:nonzero;stroke:none"
         id="path406" />
    </g>
    <g
       id="g408"
       transform="matrix(0.80583607,0,0,-0.77826549,23.685591,28.537349)">
      <path
         d="m 0,0 c 0,-0.585 -0.474,-1.059 -1.059,-1.059 -0.586,0 -1.06,0.474 -1.06,1.059 0,0.586 0.474,1.059 1.06,1.059 C -0.474,1.059 0,0.586 0,0"
         style="fill:#171940;fill-opacity:1;fill-rule:nonzero;stroke:none"
         id="path410" />
    </g>
    <g
       id="g412"
       transform="matrix(0.80583607,0,0,-0.77826549,48.429434,36.51675)">
      <path
         d="m 0,0 c 0,-0.572 -0.466,-1.037 -1.038,-1.037 h -28.63 c -0.572,0 -1.037,0.465 -1.037,1.037 v 6.199 c 0,0.585 -0.475,1.059 -1.06,1.059 -0.585,0 -1.059,-0.474 -1.059,-1.059 V 0 c 0,-1.74 1.416,-3.156 3.156,-3.156 h 10.604 l -3.035,-9.045 h -15.007 v 25.562 h 10.802 c 3.036,0 5.505,2.47 5.505,5.506 0,0.585 -0.474,1.059 -1.059,1.059 h -8.847 v 5.335 c 0,0.572 0.465,1.038 1.037,1.038 h 28.63 C -0.466,26.299 0,25.833 0,25.261 Z m -10.136,-12.201 h -9.728 l 3.036,9.045 h 3.656 z m -29.089,26.622 v -26.622 h -2.204 v 11.91 c 0,0.585 -0.474,1.059 -1.059,1.059 -0.585,0 -1.06,-0.474 -1.06,-1.059 v -11.91 h -2.203 v 22.543 c 0,0.585 -0.475,1.059 -1.06,1.059 -0.585,0 -1.059,-0.474 -1.059,-1.059 V 0.232 c -1.216,0.233 -2.135,1.262 -2.135,2.494 v 7.89 c 0,3.966 3.341,7.191 7.449,7.191 h 19.469 c -0.446,-1.35 -1.719,-2.326 -3.217,-2.326 h -11.862 c -0.585,0 -1.059,-0.475 -1.059,-1.06 m -3.589,11.311 c 1.601,0 2.903,-1.302 2.903,-2.903 0,-1.601 -1.302,-2.903 -2.903,-2.903 -1.601,0 -2.903,1.302 -2.903,2.903 0,1.601 1.302,2.903 2.903,2.903 m 27.461,5.677 c 1.868,0 3.443,-1.27 3.91,-2.991 h -7.82 c 0.467,1.721 2.043,2.991 3.91,2.991 m 14.315,-2.991 h -8.238 c -0.504,2.898 -3.036,5.11 -6.077,5.11 -3.04,0 -5.572,-2.212 -6.076,-5.11 h -8.239 c -1.74,0 -3.156,-1.416 -3.156,-3.157 v -5.335 h -5.896 c 0.583,0.821 0.928,1.822 0.928,2.903 0,2.769 -2.253,5.022 -5.022,5.022 -2.769,0 -5.021,-2.253 -5.021,-5.022 0,-1.429 0.6,-2.719 1.561,-3.634 -3.434,-1.415 -5.85,-4.727 -5.85,-8.579 v -7.89 c 0,-2.399 1.866,-4.38 4.254,-4.633 v -10.294 h -2.65 c -0.585,0 -1.06,-0.474 -1.06,-1.059 0,-0.585 0.475,-1.06 1.06,-1.06 h 29.175 c 0.003,0 0.005,0 0.008,0 0.003,0 0.005,0 0.008,0 h 12.658 c 0.003,0 0.005,0 0.008,0 0.002,0 0.005,0 0.008,0 h 8.714 c 0.586,0 1.06,0.475 1.06,1.06 0,0.585 -0.474,1.059 -1.06,1.059 h -7.96 l -3.036,9.045 h 9.899 c 1.74,0 3.156,1.416 3.156,3.156 v 25.261 c 0.001,1.741 -1.415,3.157 -3.156,3.157"
         style="fill:#171940;fill-opacity:1;fill-rule:nonzero;stroke:none"
         id="path414" />
    </g>
    <g
       id="g416"
       transform="matrix(0.80583607,0,0,-0.77826549,43.403838,25.685779)">
      <path
         d="m 0,0 c -0.413,0.414 -1.084,0.414 -1.498,0 l -4.538,-4.538 -1.655,1.655 c -0.414,0.413 -1.084,0.413 -1.498,0 l -5.85,-5.849 -1.634,1.633 c -0.199,0.199 -0.468,0.31 -0.749,0.31 -0.281,0 -0.55,-0.111 -0.749,-0.31 l -3.039,-3.039 c -0.413,-0.413 -0.413,-1.084 0,-1.498 0.207,-0.207 0.478,-0.31 0.749,-0.31 0.271,0 0.543,0.103 0.749,0.31 l 2.29,2.29 1.634,-1.634 c 0.413,-0.413 1.084,-0.413 1.498,0 l 5.85,5.849 1.655,-1.654 c 0.414,-0.414 1.084,-0.414 1.498,0 L 0,-1.499 C 0.414,-1.085 0.414,-0.414 0,0"
         style="fill:#171940;fill-opacity:1;fill-rule:nonzero;stroke:none"
         id="path418" />
    </g>
  </g>
</svg>
