<?xml version="1.0" encoding="UTF-8" standalone="no"?>
<!-- Created with Inkscape (http://www.inkscape.org/) -->

<svg
   width="56mm"
   height="56mm"
   viewBox="0 0 56 56"
   version="1.1"
   id="svg1172"
   inkscape:version="1.1.1 (3bf5ae0d25, 2021-09-20, custom)"
   sodipodi:docname="treasury.svg"
   xmlns:inkscape="http://www.inkscape.org/namespaces/inkscape"
   xmlns:sodipodi="http://sodipodi.sourceforge.net/DTD/sodipodi-0.dtd"
   xmlns="http://www.w3.org/2000/svg"
   xmlns:svg="http://www.w3.org/2000/svg">
  <sodipodi:namedview
     id="namedview1174"
     pagecolor="#ffffff"
     bordercolor="#666666"
     borderopacity="1.0"
     inkscape:pageshadow="2"
     inkscape:pageopacity="0.0"
     inkscape:pagecheckerboard="0"
     inkscape:document-units="mm"
     showgrid="false"
     inkscape:zoom="1"
     inkscape:cx="-17.5"
     inkscape:cy="229"
     inkscape:window-width="2560"
     inkscape:window-height="1411"
     inkscape:window-x="0"
     inkscape:window-y="0"
     inkscape:window-maximized="1"
     inkscape:current-layer="layer1" />
  <defs
     id="defs1169" />
  <g
     inkscape:label="图层 1"
     inkscape:groupmode="layer"
     id="layer1"
     style="display:inline">
    <g
       id="g60"
       transform="matrix(1.1653799,0,0,-0.87857906,40.323353,26.955967)">
      <path
         d="m 0,0 c -0.005,0.003 -0.01,0.007 -0.015,0.01 -1.155,0.799 -2.343,1.398 -3.534,1.78 -1.184,0.38 -2.862,0.658 -5.129,0.852 -2.117,0.182 -3.633,0.354 -4.503,0.512 -0.613,0.13 -1.147,0.391 -1.634,0.797 -0.235,0.196 -0.548,0.546 -0.548,1.324 v 1.239 c 0,2.139 0.429,2.829 0.613,3.026 0.219,0.234 0.855,0.625 2.666,0.625 h 1.983 c 1.907,0 2.527,-0.399 2.704,-0.57 0.215,-0.208 0.576,-0.804 0.576,-2.461 V 6.7 c 0,-1.456 0.905,-2.361 2.361,-2.361 h 5.268 c 1.456,0 2.361,0.905 2.361,2.361 v 1.178 c 0,3.401 -0.951,6.146 -2.826,8.16 -1.709,1.832 -3.986,2.851 -6.781,3.034 v 3.866 c 0,1.457 -0.904,2.361 -2.361,2.361 h -3.718 c -1.457,0 -2.361,-0.904 -2.361,-2.361 v -3.836 h -0.01 c -0.585,0 -1.06,-0.475 -1.06,-1.06 0,-0.585 0.475,-1.059 1.06,-1.059 h 1.069 c 0.585,0 1.059,0.474 1.059,1.059 v 4.896 c 0,0.116 0.013,0.185 0.023,0.22 0.035,0.01 0.104,0.023 0.22,0.023 h 3.718 c 0.116,0 0.185,-0.013 0.22,-0.023 0.009,-0.035 0.022,-0.104 0.022,-0.22 v -4.896 c 0,-0.585 0.475,-1.059 1.06,-1.059 h 0.124 c 2.65,0 4.667,-0.782 6.166,-2.39 C 0.291,12.985 1.05,10.726 1.05,7.878 V 6.701 C 1.05,6.584 1.037,6.516 1.027,6.481 0.993,6.471 0.924,6.459 0.808,6.459 H -4.46 c -0.116,0 -0.185,0.012 -0.22,0.022 -0.009,0.035 -0.022,0.103 -0.022,0.22 v 0.433 c 0,1.886 -0.4,3.189 -1.223,3.985 -0.812,0.784 -2.178,1.165 -4.175,1.165 h -1.984 c -2.019,0 -3.398,-0.424 -4.213,-1.297 -0.797,-0.852 -1.184,-2.315 -1.184,-4.473 V 5.275 c 0,-1.217 0.453,-2.238 1.31,-2.952 0.752,-0.627 1.616,-1.046 2.569,-1.246 0.009,-0.002 0.018,-0.004 0.027,-0.005 0.947,-0.173 2.489,-0.349 4.717,-0.54 2.077,-0.179 3.646,-0.434 4.663,-0.759 0.988,-0.318 1.986,-0.822 2.967,-1.5 1.882,-1.354 2.836,-3.899 2.836,-7.563 v -2.355 c 0,-2.956 -0.779,-5.162 -2.381,-6.746 -1.606,-1.587 -3.765,-2.359 -6.6,-2.359 h -0.124 c -0.585,0 -1.06,-0.475 -1.06,-1.06 v -4.772 c 0,-0.116 -0.013,-0.184 -0.022,-0.22 -0.035,-0.009 -0.103,-0.022 -0.22,-0.022 h -3.718 c -0.116,0 -0.185,0.013 -0.22,0.022 -0.01,0.036 -0.023,0.104 -0.023,0.22 v 4.772 c 0,0.585 -0.474,1.06 -1.059,1.06 h -0.434 c -2.87,0 -5.024,0.777 -6.587,2.377 -1.569,1.606 -2.332,3.806 -2.332,6.728 v 1.178 c 0,0.115 0.013,0.184 0.023,0.219 0.035,0.01 0.104,0.023 0.219,0.023 h 5.269 c 0.115,0 0.184,-0.013 0.219,-0.023 0.01,-0.035 0.023,-0.104 0.023,-0.219 v -0.434 c 0,-1.895 0.414,-3.203 1.265,-3.998 0.831,-0.776 2.182,-1.153 4.133,-1.153 h 2.479 c 1.913,0 3.259,0.402 4.115,1.228 0.863,0.836 1.282,2.221 1.282,4.232 v 0.93 c 0,1.333 -0.425,2.406 -1.266,3.192 -0.749,0.698 -1.635,1.18 -2.634,1.43 -0.01,0.003 -0.019,0.005 -0.029,0.007 -0.793,0.176 -2.265,0.365 -4.498,0.578 -2.092,0.199 -3.664,0.447 -4.672,0.738 -0.964,0.278 -1.97,0.764 -2.991,1.444 -0.005,0.004 -0.01,0.007 -0.015,0.01 -1.98,1.272 -2.984,3.913 -2.984,7.848 v 2.293 c 0,2.195 0.429,4.023 1.274,5.434 0.301,0.502 0.138,1.153 -0.363,1.453 -0.503,0.301 -1.153,0.138 -1.454,-0.364 -1.045,-1.744 -1.576,-3.939 -1.576,-6.523 V 5.585 c 0,-4.698 1.329,-7.937 3.95,-9.626 1.199,-0.798 2.401,-1.374 3.572,-1.712 1.149,-0.331 2.804,-0.597 5.058,-0.811 2.101,-0.201 3.523,-0.381 4.226,-0.534 0.65,-0.166 1.203,-0.467 1.69,-0.921 0.4,-0.373 0.594,-0.911 0.594,-1.643 v -0.93 c 0,-1.82 -0.4,-2.478 -0.638,-2.709 -0.298,-0.288 -0.999,-0.632 -2.641,-0.632 h -2.479 c -1.795,0 -2.453,0.365 -2.687,0.583 -0.221,0.207 -0.593,0.799 -0.593,2.449 v 0.433 c 0,1.457 -0.904,2.361 -2.36,2.361 h -5.269 c -1.456,0 -2.361,-0.904 -2.361,-2.361 v -1.177 c 0,-3.454 0.988,-6.216 2.936,-8.209 1.833,-1.877 4.346,-2.886 7.477,-3.003 v -3.725 c 0,-1.457 0.904,-2.361 2.361,-2.361 h 3.718 c 1.457,0 2.361,0.904 2.361,2.361 v 3.739 c 2.944,0.171 5.348,1.16 7.154,2.945 1.998,1.974 3.011,4.751 3.011,8.253 V -9.29 C 3.727,-4.9 2.473,-1.774 0,0"
         style="fill:#171940;fill-opacity:1;fill-rule:nonzero;stroke:none"
         id="path62" />
    </g>
    <g
       id="g64"
       transform="matrix(0.35277777,0,0,-0.35277777,93.284162,126.01951)">
      <path
         d="m 0,0 c 0,-0.585 -0.474,-1.059 -1.059,-1.059 -0.585,0 -1.06,0.474 -1.06,1.059 0,0.585 0.475,1.059 1.06,1.059 C -0.474,1.059 0,0.585 0,0"
         style="fill:#171940;fill-opacity:1;fill-rule:nonzero;stroke:none"
         id="path66" />
    </g>
  </g>
</svg>
