<?xml version="1.0" encoding="UTF-8" standalone="no"?>
<!-- Created with Inkscape (http://www.inkscape.org/) -->

<svg
   width="56mm"
   height="56mm"
   viewBox="0 0 56 56"
   version="1.1"
   id="svg1346"
   inkscape:version="1.1.1 (3bf5ae0d25, 2021-09-20, custom)"
   sodipodi:docname="democracy.svg"
   xmlns:inkscape="http://www.inkscape.org/namespaces/inkscape"
   xmlns:sodipodi="http://sodipodi.sourceforge.net/DTD/sodipodi-0.dtd"
   xmlns="http://www.w3.org/2000/svg"
   xmlns:svg="http://www.w3.org/2000/svg">
  <sodipodi:namedview
     id="namedview1348"
     pagecolor="#ffffff"
     bordercolor="#666666"
     borderopacity="1.0"
     inkscape:pageshadow="2"
     inkscape:pageopacity="0.0"
     inkscape:pagecheckerboard="0"
     inkscape:document-units="mm"
     showgrid="false"
     inkscape:zoom="0.77771465"
     inkscape:cx="396.67505"
     inkscape:cy="560.61693"
     inkscape:window-width="2560"
     inkscape:window-height="1411"
     inkscape:window-x="0"
     inkscape:window-y="0"
     inkscape:window-maximized="1"
     inkscape:current-layer="layer1" />
  <defs
     id="defs1343" />
  <g
     inkscape:label="图层 1"
     inkscape:groupmode="layer"
     id="layer1">
    <g
       id="g112"
       transform="matrix(0.87295487,0,0,-0.78643359,45.860309,35.604887)">
      <path
         d="m 0,0 c 0,-0.585 -0.474,-1.059 -1.059,-1.059 -0.586,0 -1.06,0.474 -1.06,1.059 0,0.585 0.474,1.059 1.06,1.059 C -0.474,1.059 0,0.585 0,0"
         style="fill:#171940;fill-opacity:1;fill-rule:nonzero;stroke:none"
         id="path114" />
    </g>
    <g
       id="g116"
       transform="matrix(0.87295487,0,0,-0.78643359,10.654562,35.604887)">
      <path
         d="m 0,0 c 0,-0.585 -0.474,-1.059 -1.059,-1.059 -0.586,0 -1.06,0.474 -1.06,1.059 0,0.585 0.474,1.059 1.06,1.059 C -0.474,1.059 0,0.585 0,0"
         style="fill:#171940;fill-opacity:1;fill-rule:nonzero;stroke:none"
         id="path118" />
    </g>
    <g
       id="g120"
       transform="matrix(0.87295487,0,0,-0.78643359,32.30585,24.27088)">
      <path
         d="m 0,0 c -0.585,0 -1.059,-0.474 -1.059,-1.06 v -29.656 h -3.775 v 14.742 c 0,0.585 -0.474,1.059 -1.059,1.059 -0.585,0 -1.059,-0.474 -1.059,-1.059 v -14.742 h -3.239 V -1.06 c 0,0.586 -0.474,1.06 -1.06,1.06 -0.585,0 -1.059,-0.474 -1.059,-1.06 v -13.522 c -1.914,0.173 -3.417,1.727 -3.417,3.611 v 10.268 c 0,1.834 0.534,3.619 1.542,5.163 1.85,2.827 5.016,4.515 8.47,4.515 3.461,0 6.63,-1.693 8.478,-4.527 1.004,-1.541 1.535,-3.322 1.535,-5.151 v -10.268 c 0,-1.825 -1.41,-3.34 -3.238,-3.591 V -1.06 C 1.06,-0.474 0.586,0 0,0 m -10.146,15.191 c 0,2.259 1.838,4.097 4.097,4.097 2.259,0 4.097,-1.838 4.097,-4.097 0,-2.259 -1.838,-4.097 -4.097,-4.097 -2.259,0 -4.097,1.838 -4.097,4.097 m 30.192,-45.907 h -9.097 l -0.056,26.038 c -0.001,0.584 -0.476,1.057 -1.06,1.057 H 9.831 C 9.246,-3.622 8.772,-4.098 8.774,-4.683 L 8.829,-30.716 H 5.752 l -0.028,11.585 c -0.001,0.584 -0.475,1.057 -1.059,1.057 H 4.662 c -0.585,-10e-4 -1.058,-0.477 -1.056,-1.062 l 0.026,-11.58 H 1.06 v 14.023 c 2.999,0.265 5.357,2.73 5.357,5.722 v 10.268 c 0,1.633 -0.346,3.234 -1.009,4.712 2.093,-0.14 4.04,-0.991 5.539,-2.438 1.639,-1.583 2.545,-3.689 2.55,-5.93 l 0.02,-6.03 c 0.001,-0.584 0.475,-1.056 1.059,-1.056 h 0.003 c 0.586,0.002 1.058,0.478 1.057,1.063 l -0.02,6.029 C 15.61,-1.535 14.474,1.11 12.419,3.095 11.244,4.229 9.85,5.069 8.33,5.579 c 1.077,1.024 1.749,2.47 1.745,4.071 -0.007,3.087 -2.52,5.594 -5.606,5.594 H 4.457 C 3.558,15.242 2.664,15.022 1.872,14.607 1.353,14.336 1.153,13.695 1.424,13.177 c 0.272,-0.518 0.912,-0.719 1.43,-0.447 0.499,0.26 1.04,0.393 1.607,0.395 1.926,10e-4 3.491,-1.557 3.495,-3.48 C 7.96,7.722 6.399,6.154 4.476,6.15 4.431,6.15 4.386,6.147 4.342,6.141 4.285,6.138 4.229,6.136 4.173,6.133 2.642,8.228 0.492,9.748 -1.955,10.519 c 1.3,1.14 2.122,2.811 2.122,4.672 0,3.427 -2.789,6.216 -6.216,6.216 -3.428,0 -6.217,-2.789 -6.217,-6.216 0,-1.951 0.905,-3.694 2.315,-4.834 -2.247,-0.811 -4.216,-2.263 -5.645,-4.218 -0.169,0.008 -0.336,0.012 -0.503,0.012 -0.079,0 -0.158,-10e-4 -0.237,-0.003 -0.019,0.001 -0.038,0.003 -0.058,0.003 -1.923,0 -3.487,1.564 -3.487,3.487 0,1.923 1.564,3.487 3.487,3.487 0.581,0 1.156,-0.145 1.662,-0.421 0.515,-0.279 1.158,-0.089 1.438,0.425 0.279,0.515 0.089,1.158 -0.425,1.438 -0.816,0.443 -1.741,0.678 -2.675,0.678 -3.091,0 -5.607,-2.515 -5.607,-5.607 0,-1.683 0.747,-3.195 1.926,-4.223 -4.006,-1.545 -6.847,-5.351 -6.847,-9.791 v -6.009 c 0,-0.585 0.475,-1.06 1.06,-1.06 0.585,0 1.06,0.475 1.06,1.06 v 6.009 c 0,4.394 3.508,8.009 7.961,8.375 -0.66,-1.475 -1.005,-3.072 -1.005,-4.702 v -10.268 c 0,-3.052 2.452,-5.555 5.536,-5.736 v -14.009 h -2.887 v 11.583 c 0,0.585 -0.474,1.059 -1.059,1.059 -0.586,0 -1.06,-0.474 -1.06,-1.059 v -11.583 h -2.604 v 26.025 c 0,0.585 -0.475,1.06 -1.06,1.06 -0.585,0 -1.06,-0.475 -1.06,-1.06 v -26.025 h -8.405 c -0.585,0 -1.06,-0.474 -1.06,-1.06 0,-0.585 0.475,-1.059 1.06,-1.059 h 50.491 c 0.586,0 1.06,0.474 1.06,1.059 0,0.586 -0.474,1.06 -1.06,1.06"
         style="fill:#171940;fill-opacity:1;fill-rule:nonzero;stroke:none"
         id="path122" />
    </g>
  </g>
</svg>
